<?xml version="1.0" ?><svg height="512" viewBox="0 0 512 512" width="512" xmlns="http://www.w3.org/2000/svg"><title/><rect height="92" width="44" x="234" y="26"/><rect height="92" width="44" x="234" y="394"/><rect height="44" transform="translate(24.07 309.89) rotate(-45)" width="92" x="340.11" y="103.89"/><rect height="44" transform="translate(-236.14 202.1) rotate(-45)" width="92" x="79.89" y="364.11"/><rect height="44" width="92" x="394" y="234"/><rect height="44" width="92" x="26" y="234"/><rect height="92" transform="translate(-159.93 386.11) rotate(-45)" width="44" x="364.11" y="340.11"/><rect height="92" transform="translate(-52.15 125.89) rotate(-45)" width="44" x="103.89" y="79.89"/><path d="M256,358A102,102,0,1,1,358,256,102.12,102.12,0,0,1,256,358Z"/></svg>